<svg version="1" xmlns="http://www.w3.org/2000/svg" width="682.667" height="682.667" viewBox="0 0 512.000000 512.000000"><path d="M62.7 12c-13.7 3.1-25.3 6.2-25.9 6.8-2.7 2.7-2 10.2 2.7 31.4 2.6 11.7 4.8 21.4 4.9 21.4.2.3 60.6-13.3 61-13.7.8-.8-9-42.4-10.7-45.6-1.5-2.9-5.3-6.4-6.7-6.2-.3 0-11.7 2.7-25.3 5.9zM105.5 95c-5.8 1.3-7 1.9-6.9 3.5.1 2 59.5 266.7 60 267.3.1.2 1.2-.6 2.3-1.7 2.8-2.8 6.4-3.5 9.8-1.9 5.1 2.5 5.7 5.3 5.6 27.3 0 11-.1 30.2-.2 42.7l-.1 22.7-3.7 1c-2.1.6-7.7 1.9-12.5 2.9l-8.6 1.9-18-37.1-18-37.1-5.7-25c-3.2-13.8-6.1-26.8-6.6-29-.4-2.2-4.4-20-8.9-39.5-4.4-19.5-9.3-41.1-10.8-48l-2.7-12.5-.3 101C80 432.2 80 434.7 82 441.1c3.4 11.5 12.8 21.6 24 26.1 4.9 2 7.7 2.2 27.3 2.6l21.8.4 7.9 15.9c6.1 12.1 8.5 15.9 9.9 15.9 2.8 0 3.1-1.8 3.1-17.6V470h43.5c34.1 0 43.5-.3 43.5-1.3 0-.9.2-.9.8.1.7 1 16.7 1.2 80.8 1l79.9-.3 6.7-3.2c12.6-6 21.3-17 23.8-30.2.6-3.4 1-44.1 1-109.8 0-83.3.3-104.3 1.3-103.7C459.2 223.8 335 98.4 332 96.2c-3.3-2.5-2.7-2.4-38.7-2.3-26.9.1-29.2.2-29.6 1.8-.4 1.7-.5 1.7-.6 0-.1-1.6-4.2-1.7-68.8-1.9-37.9-.1-71.7-.2-75.3-.3-3.6 0-9.7.7-13.5 1.5zm158.2 6.2c-.3.8-.6.5-.6-.6-.1-1.1.2-1.7.5-1.3.3.3.4 1.2.1 1.9zM395.6 164l52.8 55.5-16.4.8c-9.1.4-31.3.6-49.5.5-28.8-.3-33.4-.5-36.1-2-4.6-2.5-9.2-8.2-10.4-13-.8-2.9-1.1-19.3-.8-54.5l.3-50.3 3.6 3.8c2 2 27.4 28.7 56.5 59.2zm-131.9-57.8c-.3.7-.5.2-.5-1.2s.2-1.9.5-1.3c.2.7.2 1.9 0 2.5zm0 4c-.3.8-.6.5-.6-.6-.1-1.1.2-1.7.5-1.3.3.3.4 1.2.1 1.9zm0 5c-.3.8-.6.5-.6-.6-.1-1.1.2-1.7.5-1.3.3.3.4 1.2.1 1.9zm0 5c-.3.8-.6.5-.6-.6-.1-1.1.2-1.7.5-1.3.3.3.4 1.2.1 1.9zm0 5c-.3.7-.5.2-.5-1.2s.2-1.9.5-1.3c.2.7.2 1.9 0 2.5zm0 5c-.3.7-.5.2-.5-1.2s.2-1.9.5-1.3c.2.7.2 1.9 0 2.5zm0 5c-.3.7-.5.2-.5-1.2s.2-1.9.5-1.3c.2.7.2 1.9 0 2.5zm0 4c-.3.8-.6.5-.6-.6-.1-1.1.2-1.7.5-1.3.3.3.4 1.2.1 1.9zm3.1 7.1c1.8-.4 11.2 1.8 11.2 2.6 0 .4.6.8 1.3.8 6.1 0 26.1 16.7 27.1 22.6.1.6.9 2.3 1.8 3.7 3.6 5.5 5.2 13.2 5.2 24-.1 5.8-.3 11.4-.7 12.5-1.2 4.5-3.8 9.5-4.8 9.5-.5 0-.7.5-.4 1 .4.6.2 1.6-.3 2.3-.5.7-1 1.9-1.1 2.7 0 .8-.4 3.2-.7 5.3-1.2 7.6 4.2 24.6 12 37.8 1.9 3.1 3.7 6.7 4.1 7.8.3 1.2 1.1 2.1 1.6 2.1s.9.6.9 1.3c0 .7 1.4 2.6 3 4.2 1.7 1.6 3 3.3 3 3.7 0 1.2 5.2 5.7 6.5 5.8.6 0 1.1.9 1.2 2 .1 1.3-.2 1.8-1 1.4-.7-.4-.8-.3-.4.2.5.5 1.8.9 3 .9 1.3.1 2.1.6 1.9 1.4-.1.7.2 1 .7.7.5-.4 1.2-.2 1.6.3.3.6 1.3.7 2.2.4 1.2-.5 1.5-.2 1 1-.5 1.4-.2 1.5 1.8.7 1.7-.7 2.5-.6 2.5.1 0 .8.4.8 1.3.2 1.2-.9 2.3-1 9.7-.4 2.7.2 3 .4 1.5.9-1.2.4-8 4.2-15.2 8.5-13.3 7.8-15 8.6-13.7 6.5.4-.7.3-.8-.5-.4-.6.4-.9 1.1-.6 1.6.3.4-2.7 2.7-6.5 4.9-4.3 2.6-6.8 4.7-6.4 5.3.5.7.2.9-.8.6-.8-.4-3 .2-4.7 1.3-1.7 1-4.7 2.5-6.6 3.3l-3.5 1.5 2.5-4.9c1.4-2.8 2.5-5.2 2.5-5.5 0-.3.7-1.7 1.7-3.2 1-1.5 1.7-4.6 1.8-7.4 0-2.6.4-5.1.9-5.6s.6-.2.2.5c-.6 1 0 1 2.2-.2 3.7-1.9 4.6-2 3.6-.4-.4.7-.3.8.5.4.6-.4.8-1.2.5-1.8-.5-.8-.1-.9 1-.5s1.5.3 1.1-.4c-.4-.6.1-.9 1.1-.7 1.2.2 1.8-.2 1.6-1.1-.2-.9.3-1.1 1.3-.7.9.3 1.3.2 1-.4-.6-.9.8-1.4 2.8-1.1.5.1.6-.3.2-.9-.3-.5-.2-1 .2-1 .5 0 1.8-.7 2.9-1.6 2.6-2.1 1.4-1.5-8.3 4-4.6 2.7-8.8 4.4-9.4 4-.7-.4-.9-.3-.5.4s-.1 1-1.3.9c-1.6-.1-2.2-1.1-2.8-4.7-.4-2.5-.7-5.1-.6-5.7 0-.7-.3-1-.8-.7-.5.3-.9-.2-.9-1s-.8-2-1.7-2.5c-1-.6-1.3-1.1-.6-1.1.8 0 .5-1.5-.9-4.7-1.2-2.7-1.7-4.8-1.1-5 .6-.2 1.9-1.1 2.9-1.9 1.6-1.3 1.5-1.3-1.3.1l-3.2 1.5-3.6-6.1c-1.9-3.3-3.5-6.2-3.5-6.5 0-.4-1.1-1.8-5-6.2-1.1-1.2-1.7-2.2-1.4-2.2.4 0-.5-.9-2-2.1-1.4-1.1-2.3-2.6-1.9-3.2.3-.7.3-.9-.1-.5-.4.3-2.7-.8-5-2.6-6.3-4.7-9.9-6-13.6-4.8-5 1.8-3.4.4 4-3.3 3.9-1.9 7-3.8 7-4 0-1.5-14.2 6.9-15 8.8-.7 1.7-.9 1.8-.9.4-.1-1.9 0-1.8-5-2.1-5.2-.3-13.7 5.7-20.5 14.5-3.1 4.1-6.3 8.1-7 8.9-.7.9-1.1 2.1-.9 2.7.2.6-.9 2.5-2.4 4.4-1.5 1.8-2.2 2.9-1.5 2.5 1.9-1.1 0 2.5-2.2 4.4-.9.7-1.6 2-1.6 2.9 0 .9-.5 2.2-1.2 2.9-.9.9-.8 1.2.8 1.2s1.6.2-.5 1.3c-3 1.4-5.2 8.2-5.8 17.6-.5 6.8.3 9.1 6.8 18.7 1.6 2.3 2.5 4.5 2.1 4.9-.4.3-.2.6.3.4 1.8-.4 4.5 1.3 3.8 2.4-.3.6-.1.7.5.3.6-.4 2.5 0 4.1.9 1.7.8 4.3 1.5 5.9 1.5 1.5 0 3.7.7 4.8 1.5 1 .8 2.8 1.5 3.9 1.5 1.2 0 2.7.6 3.4 1.3 1.1.9 1.3.9.7-.1-.5-.8 0-1.2 1.4-1.2 1.2 0 1.8.4 1.5 1-.4.6.2.7 1.7.1 3.8-1.3 26-1.1 25.1.3-.4.7 0 .3 1-.7.9-1.1 1.7-1.4 1.7-.8 0 .7.4.9 1 .6 1.5-.9 10-2.6 10-2 0 .4-7 4.5-7.6 4.5-.3 0-.2-.5.2-1.2s.3-.8-.5-.4c-.6.4-.8 1.2-.5 1.8.5.8.1.9-1 .5-.9-.4-1.5-.3-1.2.2.4.5-3 3-7.4 5.6-4.4 2.6-8 4.9-8 5.1 0 1.1 19.7-9.9 33.8-18.9 3.5-2.2 7-4 7.7-4 .8 0 1.1-.5.8-1-.4-.6 0-.8 1-.4s7-2.7 16.4-8.4c8.1-4.9 15.4-8.7 16.1-8.4.7.3 1 .1.7-.5-.8-1.2 3.2-3.3 4.8-2.4.6.5.5-.1-.3-1.1-1.4-1.7-1.4-1.8.9-.6 1.9 1.1 2.2 1.1 1.6 0-.6-.9-.4-1.1.7-.6 1.8.6 3-.1 2.2-1.4-.3-.5-1.5-.4-2.7.2-2.1 1-2.1 1-.2-.6 1.1-.8 2.5-1.3 3.2-1.1.6.3 1.3.1 1.5-.3.2-.5 2.6-1.9 5.3-3.3 4.4-2.1 5.6-2.3 10.3-1.5 3 .5 5.6 1.5 5.9 2.3.3.8 1.3 1.4 2.3 1.4 2 0 4.3 2.4 3.3 3.4-.4.4.1.4 1 0 1.4-.5 3.3.9 7.8 5.7 6.5 6.7 9.7 12.2 12.3 20.8 1.9 6.5 1.9 6.4.4 5.5-1-.6-1-.4 0 .7 1.4 1.6 1.6 3.3.2 2.4-.5-.3-1-.1-1 .4 0 .6.4 1.1.9 1.1 1.2 0 1.1 5.9 0 8.2-.6 1-.5 1.9.1 2.3.6.4.8 1 .5 1.5-.3.4-.7 2.4-.9 4.4-1 7.6-1.9 10.5-3.6 12.4-1 1.1-1.6 2.3-1.3 2.6.4.3.1.6-.5.6s-.9.7-.6 1.5c.7 1.8-9.9 12.7-16.3 16.7-6.6 4.2-12.3 6.9-13.2 6.4-.5-.3-2.3.1-4 1-3.4 1.7-10.1 2.6-10.1 1.4 0-.4-1.5-.5-3.3-.1-1.8.5-4.1.4-5.2 0-1.1-.4-3.2-.8-4.7-.8-1.6-.1-2.8-.6-2.8-1.2 0-.5.6-.7 1.3-.3.6.4.9.4.5-.1-.4-.4-2.3-.9-4.3-1-1.9-.1-4.3-.9-5.3-1.8-1-1-2.4-1.7-3.1-1.7-1.9 0-8.2-5.1-7.5-6.1.3-.5.2-.9-.3-.8-2.4.4-2.5-.4-.3-2.2 2.4-1.9 2.4-2 .2-.9-1.3.6-3 .9-3.7.6-1.4-.5-10-12.6-9-12.6.5 0-6.9-6.5-10-8.8-2.2-1.6-14.2-5.2-17.2-5.2-1.8 0-3.3-.4-3.3-.9s-1-.7-2.2-.3c-1.1.3-1.9.1-1.6-.4.4-.5-.7-.9-2.2-.9-1.5 0-2.6.3-2.3.7.2.5-.7.8-2.1.8-3 0-3.3-.7-.8-2.7 1.5-1.3 1.5-1.3-.5-.4-1.2.6-2.4 1.6-2.6 2.3-.4.9-.8 1-1.4.3-.4-.6-1.7-.9-2.8-.8-1.1.2-4.3.5-7.2.8-3.4.3-7.2 1.6-10.9 3.7-3.2 1.7-5.5 2.7-5.1 2.1.4-.6 2-1.6 3.7-2.3 1.6-.7 3-1.7 3-2.2 0-.5-.9-.4-2 .2-1.1.6-2 .8-2 .5 0-.8-10.8 5.2-13.2 7.3-1 .8-1.5 1.8-1.2 2.3.2.4-.4 1.3-1.5 1.8-1 .6-2.2 2.3-2.6 3.8-.7 2.8-6.4 9-7.8 8.5-.5-.1-.6.1-.3.6 1.3 2.2-16.1 13.7-22.4 14.9-2.4.4-2.5.4-.5-1.2 1.1-.8 1.4-1.4.6-1.3-.8.2-1.5-.7-1.7-2.2-.4-2.2.4-3 4.7-5.5 2.8-1.7 5.5-2.9 6-2.7.5.1.9-.3.9-.9 0-.5.5-.7 1.2-.3.7.4.8.3.4-.4-.7-1.1.6-1.7 2.7-1.3.5.1.6-.3.2-.9-.4-.7-3.5.5-8.3 2.9-4.2 2.2-7.8 3.9-8 3.6-.3-.2-.1-1.2.3-2.2.5-1 .7-2.2.6-2.6-.1-.4.7-.7 1.6-.5 1 .2 1.7-.2 1.5-.9-.1-.7.2-1.3.6-1.3.5 0 1.7-.7 2.8-1.5 1.1-1 .2-.8-2.3.5-3.1 1.4-4.3 1.7-4.3.8 0-.7 9-6.2 20-12.2 11-6 19.8-11.1 19.6-11.3-.5-.6-26.1 12.7-32.8 17-6.2 4-7.8 4.5-7.8 2.2 0-1.9 5.5-5.4 28.3-17.9 9.7-5.4 17.7-10 17.7-10.3 0-.5-10.5 5-32.1 16.8-6.9 3.8-12.9 6.9-13.3 6.9-2.2 0 2.6-3.5 11-8.1 9.4-5 11.4-6.6 7.2-5.4-2 .5-2.1.5-.5-.5 1-.7 2.5-.9 3.3-.6 1 .4 1.2.2.8-.6-.5-.8-.2-.9 1-.5 1.1.5 1.5.3 1-.5s-.1-.9 1.2-.4c1 .4 1.5.4 1.2 0-.4-.3 5.4-3.7 12.9-7.5 12.3-6.1 18.4-9.9 15.8-9.9-2.5.1-39 19.9-38.7 21 .2.8-.3 1-1.3.6-.9-.3-1.4-.2-1.1.3.5.7-2.9 2.4-13.5 6.9-.4.2-.7-1.3-.7-3.2 0-3.2.5-3.8 6-7 3.3-2 6.4-3.3 7-3 .7.4.8.2.4-.4-.7-1.1.6-1.7 2.7-1.3.5.1.6-.3.2-.9-.3-.6-.9-.9-1.3-.7-.4.2-4 2.4-8 4.7-6 3.5-7.5 4.1-8.3 2.9-2.1-3.3-.8-4.8 7.6-9.4 4.7-2.6 8.5-4.8 8.5-5 0-.2-1-.1-2.2.2-2 .4-1.9.2.5-1.2 3.7-2.1 3.5-2.9-.3-1-1.8.9-2.8 2-2.4 2.7.5.7.2.9-.9.5-.9-.3-1.6-.2-1.4.3.3 1.2-9.8 7.1-10.7 6.3-1.7-1.7.2-3.6 8.4-8.3 5-2.8 9-5.4 9-5.6 0-.6-6.2 2.6-13 6.6-2.8 1.6-5.2 3-5.4 3-.4 0-1.1-3.5-3-14.5-.3-1.3-.7-2.9-1.1-3.4-.3-.6 2.1-2.4 5.5-4.1 3.3-1.7 6-3.3 6-3.5 0-.3-2.7.8-5.9 2.5-6 3-8.7 2.7-5.9-.7.9-1.2.9-1.5.1-.9-.7.4-1.3.3-1.3-.2s1.1-1.4 2.5-2c3.2-1.5 3.8-1.5 2.9 0-.4.7-.3.8.5.4.6-.4.8-1.2.5-1.8-.5-.8-.1-.9 1-.5 1.1.5 1.5.3 1-.5s-.2-.9 1-.5c.9.4 1.5.3 1.2-.1-.3-.5 2.4-2.5 6-4.5 10.6-6.2 7.2-5.3-5.2 1.3-6.4 3.4-11.7 6-11.8 5.8-.2-.2-2.3-9-3.2-13.3-1-4.8-.7-5.7 2.1-8.1l3-2.6-3.2 2.2c-1.8 1.2-3.3 2-3.4 1.8 0-.2-.2-1.5-.4-3-.3-2.4-.1-2.6 1.8-1.9 1.4.6 3.8.1 7.5-1.6 2.9-1.3 5.9-2 6.5-1.7.7.4.9.4.5-.1-1-1.1 4.4-5.6 5.9-5.1.8.3 1-.1.6-1.1s.6-2.7 2.9-4.7c1.9-1.7 3.8-4 4.2-5.1.3-1.1 1.6-3.1 2.8-4.5 3-3.4 4.8-6.6 4.8-8.6 0-1 1.1-3.2 2.5-5 1.4-1.8 2.5-3.9 2.5-4.6 0-.8.5-1.9 1.1-2.5 1.9-1.9 4.1-11.8 4-18.2-.2-5.5-.9-7.8-4.6-15.3-5.1-10.2-7.5-20.1-7.1-29.6.3-7.7 4-20.8 6.6-23.7 1-1.1 2.1-3 2.5-4.3.3-1.2.9-2.2 1.3-2.2s3-2.1 5.7-4.6c5.5-5.1 11.8-9.4 13.7-9.4.6 0 3.2-1 5.7-2.2 4.1-2 7.5-2.6 15.4-2.7 2.1-.1 2.7-.6 2.7-2.4 0-2.2.1-2.2 1.3.3.8 1.4 1.9 2.4 2.5 2.3zm-3.1 112.9c-.3.7-.5.2-.5-1.2s.2-1.9.5-1.3c.2.7.2 1.9 0 2.5zm0 9c-.3.8-.6.5-.6-.6-.1-1.1.2-1.7.5-1.3.3.3.4 1.2.1 1.9zm0 5c-.3.8-.6.5-.6-.6-.1-1.1.2-1.7.5-1.3.3.3.4 1.2.1 1.9zm0 5c-.3.8-.6.5-.6-.6-.1-1.1.2-1.7.5-1.3.3.3.4 1.2.1 1.9zm0 5c-.3.8-.6.5-.6-.6-.1-1.1.2-1.7.5-1.3.3.3.4 1.2.1 1.9zm0 4c-.3.8-.6.5-.6-.6-.1-1.1.2-1.7.5-1.3.3.3.4 1.2.1 1.9zm0 5c-.3.8-.6.5-.6-.6-.1-1.1.2-1.7.5-1.3.3.3.4 1.2.1 1.9zm2.3 4.3c0 .2-.7.5-1.5.9-.9.3-1.5 0-1.5-.9s.6-1.2 1.5-.9c.8.4 1.5.7 1.5.9zm-178.3.1c-.3.3-1.2.4-1.9.1-.8-.3-.5-.6.6-.6 1.1-.1 1.7.2 1.3.5zm5 0c-.3.3-1.2.4-1.9.1-.8-.3-.5-.6.6-.6 1.1-.1 1.7.2 1.3.5zm82 0c-.3.3-1.2.4-1.9.1-.8-.3-.5-.6.6-.6 1.1-.1 1.7.2 1.3.5zm4 0c-.3.3-1.2.4-1.9.1-.8-.3-.5-.6.6-.6 1.1-.1 1.7.2 1.3.5zm5 0c-.3.3-1.2.4-1.9.1-.8-.3-.5-.6.6-.6 1.1-.1 1.7.2 1.3.5zm5 0c-.3.3-1.2.4-1.9.1-.8-.3-.5-.6.6-.6 1.1-.1 1.7.2 1.3.5zm39 0c-.3.3-1.2.4-1.9.1-.8-.3-.5-.6.6-.6 1.1-.1 1.7.2 1.3.5zm4 0c-.3.3-1.2.4-1.9.1-.8-.3-.5-.6.6-.6 1.1-.1 1.7.2 1.3.5zm5 0c-.3.3-1.2.4-1.9.1-.8-.3-.5-.6.6-.6 1.1-.1 1.7.2 1.3.5zm5 0c-.3.3-1.2.4-1.9.1-.8-.3-.5-.6.6-.6 1.1-.1 1.7.2 1.3.5zm5 0c-.3.3-1.2.4-1.9.1-.8-.3-.5-.6.6-.6 1.1-.1 1.7.2 1.3.5zm24 0c-.3.3-1.2.4-1.9.1-.8-.3-.5-.6.6-.6 1.1-.1 1.7.2 1.3.5zm19 0c-.3.3-1.2.4-1.9.1-.8-.3-.5-.6.6-.6 1.1-.1 1.7.2 1.3.5zm5 0c-.3.3-1.2.4-1.9.1-.8-.3-.5-.6.6-.6 1.1-.1 1.7.2 1.3.5zm48 0c-.3.3-1.2.4-1.9.1-.8-.3-.5-.6.6-.6 1.1-.1 1.7.2 1.3.5zm5 0c-.3.3-1.2.4-1.9.1-.8-.3-.5-.6.6-.6 1.1-.1 1.7.2 1.3.5zm19 0c-.3.3-1.2.4-1.9.1-.8-.3-.5-.6.6-.6 1.1-.1 1.7.2 1.3.5zm5 0c-.3.3-1.2.4-1.9.1-.8-.3-.5-.6.6-.6 1.1-.1 1.7.2 1.3.5zm24 0c-.3.3-1.2.4-1.9.1-.8-.3-.5-.6.6-.6 1.1-.1 1.7.2 1.3.5zm5 0c-.3.3-1.2.4-1.9.1-.8-.3-.5-.6.6-.6 1.1-.1 1.7.2 1.3.5zm19 0c-.3.3-1.2.4-1.9.1-.8-.3-.5-.6.6-.6 1.1-.1 1.7.2 1.3.5zm5 0c-.3.3-1.2.4-1.9.1-.8-.3-.5-.6.6-.6 1.1-.1 1.7.2 1.3.5zm19 0c-.3.3-1.2.4-1.9.1-.8-.3-.5-.6.6-.6 1.1-.1 1.7.2 1.3.5zm5 0c-.3.3-1.2.4-1.9.1-.8-.3-.5-.6.6-.6 1.1-.1 1.7.2 1.3.5zm-185 5.6c-.3.8-.6.5-.6-.6-.1-1.1.2-1.7.5-1.3.3.3.4 1.2.1 1.9zm0 14c-.3.8-.6.5-.6-.6-.1-1.1.2-1.7.5-1.3.3.3.4 1.2.1 1.9zm82.3 1.3c0 .2-1.3 1.1-3 2-3.8 1.9-4 1.1-.2-.9 3.1-1.7 3.2-1.8 3.2-1.1zm-82.3 3.7c-.3.8-.6.5-.6-.6-.1-1.1.2-1.7.5-1.3.3.3.4 1.2.1 1.9zm75.3.3c0 .2-1.3 1.1-3 2-3.8 1.9-4 1.1-.2-.9 3.1-1.7 3.2-1.8 3.2-1.1zm-7 4c0 .2-1 .9-2.2 1.5-2.2 1.1-2.2 1-.4-.4 2.1-1.7 2.6-1.9 2.6-1.1zm-5 3c0 .2-1 .9-2.2 1.5-2.2 1.1-2.2 1-.4-.4 2.1-1.7 2.6-1.9 2.6-1.1zm-10 6c0 .2-1 .9-2.2 1.5-2.2 1.1-2.2 1-.4-.4 2.1-1.7 2.6-1.9 2.6-1.1zm-53.3 5.7c-.3.8-.6.5-.6-.6-.1-1.1.2-1.7.5-1.3.3.3.4 1.2.1 1.9zm0 5c-.3.8-.6.5-.6-.6-.1-1.1.2-1.7.5-1.3.3.3.4 1.2.1 1.9zm35.3-1.8c0 .2-.7.7-1.6 1-.8.3-1.2.2-.9-.4.6-1 2.5-1.4 2.5-.6zM228.5 376c-.3.5-1.2 1-1.8 1-.7 0-.6-.4.3-1 1.9-1.2 2.3-1.2 1.5 0zm35.2 2.2c-.3.8-.6.5-.6-.6-.1-1.1.2-1.7.5-1.3.3.3.4 1.2.1 1.9zm0 5c-.3.8-.6.5-.6-.6-.1-1.1.2-1.7.5-1.3.3.3.4 1.2.1 1.9zm0 5c-.3.8-.6.5-.6-.6-.1-1.1.2-1.7.5-1.3.3.3.4 1.2.1 1.9zm0 19c-.3.8-.6.5-.6-.6-.1-1.1.2-1.7.5-1.3.3.3.4 1.2.1 1.9zm0 5c-.3.8-.6.5-.6-.6-.1-1.1.2-1.7.5-1.3.3.3.4 1.2.1 1.9zm0 19c-.3.8-.6.5-.6-.6-.1-1.1.2-1.7.5-1.3.3.3.4 1.2.1 1.9zm0 5c-.3.8-.6.5-.6-.6-.1-1.1.2-1.7.5-1.3.3.3.4 1.2.1 1.9zm0 14c-.3.8-.6.5-.6-.6-.1-1.1.2-1.7.5-1.3.3.3.4 1.2.1 1.9zm0 5c-.3.8-.6.5-.6-.6-.1-1.1.2-1.7.5-1.3.3.3.4 1.2.1 1.9z"/><path d="M250.3 153.3c-2.8 1.8-5.5 3.6-6 4.1-.9 1.1 10.7-5.2 12.2-6.5 2-1.9-1.2-.7-6.2 2.4zM244.8 152.6c-3.8 2-3.6 2.8.2.9 1.7-.9 3-1.8 3-2 0-.7-.1-.6-3.2 1.1zM237.8 156.6c-3.8 2-3.6 2.8.2.9 1.7-.9 3-1.8 3-2 0-.7-.1-.6-3.2 1.1zM272 162c-4.7 2.7-8.1 5-7.7 5 1.1 0 17.7-9 17.7-9.6 0-1-2.1-.1-10 4.6zM232.3 164c-5.7 3.3-10.3 6.3-10.3 6.6 0 .3 1.5-.3 3.3-1.4 1.7-1.1 6.5-3.8 10.5-6.2 6.1-3.6 8.1-5 7-5-.2 0-4.9 2.7-10.5 6zM230.8 160.6c-3.8 2-3.6 2.8.2.9 1.7-.9 3-1.8 3-2 0-.7-.1-.6-3.2 1.1zM287.8 163.6c-3.8 2-3.6 2.8.2.9 1.7-.9 3-1.8 3-2 0-.7-.1-.6-3.2 1.1zM221 166c-.9.6-1 1-.3 1 .6 0 1.5-.5 1.8-1 .8-1.2.4-1.2-1.5 0zM246.3 169.3c-4 2.4-7.6 4.7-8 5.1-1 1.1 10.4-5.2 13.8-7.6 4.2-3 1.6-1.8-5.8 2.5zM256.7 170.5c-8 4.5-8.5 5.4-.7 1.5 7.1-3.5 7.5-3.8 6.9-4.4-.2-.2-3 1.1-6.2 2.9zM277 174.6c-11 5.8-17.5 10.6-8 5.9 9.2-4.6 20.7-11.6 18.8-11.5-.2 0-5 2.5-10.8 5.6zM293.5 171.9c-3.3 1.6-6.9 3.6-8 4.5-1.1.9 1.7-.1 6.3-2.4 4.5-2.2 8.2-4.2 8.2-4.5 0-.7 0-.7-6.5 2.4zM232.4 177.6c-1.8 1.4-1.8 1.5.4.4 1.2-.6 2.2-1.3 2.2-1.5 0-.8-.5-.6-2.6 1.1zM291 186.5c-9.1 5.2-16.1 9.5-15.7 9.5 1.5 0 32.7-17.3 32.7-18.2 0-1.1 1.5-1.9-17 8.7zM258.4 181.6c-1.8 1.4-1.8 1.5.4.4 1.2-.6 2.2-1.3 2.2-1.5 0-.8-.5-.6-2.6 1.1zM279.4 182.6c-1.8 1.4-1.8 1.5.4.4 1.2-.6 2.2-1.3 2.2-1.5 0-.8-.5-.6-2.6 1.1zM242.4 190.3c-9.6 5.3-18.1 10.7-14.9 9.4 2.5-1.1 26.5-14.9 26.5-15.3 0-.7 0-.7-11.6 5.9zM220.5 190.6c-7.5 4.5-9.8 6.7-2.9 2.8 5.5-3.1 10.2-6.3 9.4-6.3-.3 0-3.2 1.6-6.5 3.5zM293.8 191.4c-7.8 4.4-8.8 5.8-1.3 1.7 5.5-3 8.6-5.1 7.5-5.1-.3 0-3.1 1.5-6.2 3.4zM305.4 190.6c-1.8 1.4-1.8 1.5.4.4 1.2-.6 2.2-1.3 2.2-1.5 0-.8-.5-.6-2.6 1.1zM295.5 196c-3.8 2.2-6.6 4-6.2 4 1.3 0 12.5-5.9 13.2-7 .9-1.4.7-1.4-7 3zM219.4 194.6c-1.8 1.4-1.8 1.5.4.4 1.2-.6 2.2-1.3 2.2-1.5 0-.8-.5-.6-2.6 1.1zM250.4 196.6c-1.8 1.4-1.8 1.5.4.4 1.2-.6 2.2-1.3 2.2-1.5 0-.8-.5-.6-2.6 1.1z"/><path d="M282.8 197.6c-3.8 2-3.6 2.8.2.9 1.7-.9 3-1.8 3-2 0-.7-.1-.6-3.2 1.1zM296.8 201.6c-2.7 1.3-4.8 2.7-4.8 2.9 0 .3 2.3-.6 5-2 2.8-1.4 5-2.8 5-3 0-.7.1-.7-5.2 2.1zM309.3 199.7c.4.3-.1 1.2-1.1 2-1.5 1.3-1.5 1.3.6.3 1.9-.9 2.3-3 .5-3-.4 0-.3.3 0 .7zM240.4 204.6c-1.8 1.4-1.8 1.5.4.4 1.2-.6 2.2-1.3 2.2-1.5 0-.8-.5-.6-2.6 1.1zM303.7 204.1c-.9.5-2.1.8-2.5.5-.5-.3-.9.1-.9.9 0 1 .5 1.1 1.9.4 1-.5 2.2-.8 2.7-.5.4.3.8-.1.8-.9s-.1-1.5-.1-1.5c-.1 0-.9.5-1.9 1.1zM218.8 206.6c-3.8 2-3.6 2.8.2.9 1.7-.9 3-1.8 3-2 0-.7-.1-.6-3.2 1.1zM273.3 209c-4 2.3-7.3 4.3-7.3 4.6 0 .5 12.9-6.4 14.5-7.8 1.7-1.5 0-.8-7.2 3.2zM231.3 209.6c-3.5 1.9-6.3 3.8-6.3 4.1 0 .5 10.9-5.4 12.5-6.8 1.6-1.6.1-.9-6.2 2.7zM254.4 207.6c-1.8 1.4-1.8 1.5.4.4 1.2-.6 2.2-1.3 2.2-1.5 0-.8-.5-.6-2.6 1.1zM220.5 210.9c-.3.5-.2 1.2.3 1.5.5.3.9-.1.9-.9 0-1.7-.3-1.9-1.2-.6zM303.5 212.5c-4.3 2.7-6 3.2-4.9 1.3.4-.7.3-.8-.5-.4-.6.4-.8 1.2-.5 1.8.5.7.2.9-.8.6-.9-.4-1.5 0-1.5.8s.3 1.4.6 1.4c.9 0 12.1-7 12.1-7.6 0-.6-.2-.5-4.5 2.1zM217.5 212.9c-.3.5-.2 1.2.3 1.5.5.3.9-.1.9-.9 0-1.7-.3-1.9-1.2-.6zM287.3 213.7c1 1-5.2 4.4-6.6 3.7-.7-.4-.9-.3-.4.1 1 1.1-12.1 8.7-13.6 7.8-.7-.3-.9-.3-.5.2.4.4 0 1.4-1 2.2-2.6 2.1 5.9-2.2 15.4-7.8 4.6-2.7 8.2-5.4 7.9-6-.4-.5-.9-.9-1.2-.9-.4 0-.3.3 0 .7zM290.7 217.6c-2.3 1.2-3 3.4-1.1 3.4.3 0 .2-.5-.2-1.2-.5-.8-.2-.9 1-.5 1.1.5 1.5.3 1-.5-.5-.7-.2-.9.8-.6.9.4 1.5 0 1.5-.8s-.1-1.4-.1-1.4c-.1.1-1.4.8-2.9 1.6zM297.5 220.5c-9 5-9.5 6-.7 1.6 5.2-2.7 10.4-6.1 9.2-6-.3 0-4.1 2-8.5 4.4zM218.4 219.6c-1.8 1.4-1.8 1.5.4.4 1.2-.6 2.2-1.3 2.2-1.5 0-.8-.5-.6-2.6 1.1zM257.7 219.4c.4.5-.1.7-1.1.3-1-.4-1.5-.3-1.1.3.8 1.3 1.8 1.3 3.9-.3 1.6-1.2 1.6-1.3-.3-1.3-1.1 0-1.7.5-1.4 1zM249.7 227.4c-7.4 4.5-12.6 8.2-9.2 6.4 3.2-1.6 18.5-11 18.5-11.4 0-.6.1-.7-9.3 5zM296.7 227.6c-2.3 1.2-3 3.4-1.1 3.4.3 0 .2-.5-.1-1-.3-.6-.2-1 .2-1 .5 0 1.8-.7 2.9-1.5 2.5-1.9 1.7-1.8-1.9.1zM261.6 229.2c.5.8.2.9-1 .5-1.1-.5-1.5-.3-1 .5.5.7.2.9-.8.5-1.8-.6-3 .1-2.2 1.4.3.5 1.9.2 3.5-.6 1.6-.9 2.7-2 2.4-2.5-.4-.6-.8-1-1.1-1-.3 0-.2.5.2 1.2zM288.5 232.3c-1.4 1.1-1.5 1.6-.5 2.2.9.6 1.1.4.5-.5-.6-.9-.4-1.2.7-.8.9.4 1.5 0 1.5-.8 0-1.7.1-1.7-2.2-.1zM223.4 233.6c-1.8 1.4-1.8 1.4.6.3 3.1-1.4 3.6-1.9 2.4-1.9-.6 0-1.9.7-3 1.6zM254.5 233c.6 1 .4 1.2-.7.7-2.2-.8-5.6 1.7-3.8 2.8.9.6 1.1.4.5-.5-.6-1-.4-1.2.7-.7 2.2.8 5.6-1.7 3.8-2.8-.9-.6-1.1-.4-.5.5zM279.4 233.6c-1.8 1.4-1.8 1.5.4.4 1.2-.6 2.2-1.3 2.2-1.5 0-.8-.5-.6-2.6 1.1zM269.5 236.5c-3.3 1.9-5.7 3.5-5.2 3.5.9 0 11.7-6 11.7-6.6 0-.6-.2-.5-6.5 3.1zM280.5 236.9c-.3.5-.2 1.2.3 1.5.5.3.9-.1.9-.9 0-1.7-.3-1.9-1.2-.6zM225 239.5c-1.4.8-2 1.4-1.4 1.5.5 0 1.9-.7 3-1.5 2.4-1.8 1.6-1.9-1.6 0zM232 245c-4.7 2.7-8.1 5-7.6 5 1 0 16.6-9 16.6-9.6 0-.6-.1-.6-9 4.6zM273.7 240.7c-.4.3-.2 1.2.4 2 1.4 1.7-.2 1.7-2.1 0-1.2-1-1.2-.9-.2.4.6.9.8 1.9.4 2.4-.4.4.3.3 1.5-.4 1.2-.6 2-1.7 1.9-2.6-.3-1.9-1.1-2.7-1.9-1.8zM244.8 246.1c-3.2 1.6-5.8 3.2-5.8 3.4 0 .3 2.7-.8 6-2.5s6-3.2 6-3.5c0-.7.2-.8-6.2 2.6zM264.6 245.9c-.3.5.2 1.5 1.2 2.2 1.5 1.2 1.6 1.2.5-.2-.7-.9-1-1.9-.6-2.2.3-.4.4-.7 0-.7-.3 0-.8.4-1.1.9zM248.5 252.6c-14.1 8.1-26.5 15.7-26.5 16.1 0 .3 1.9-.6 4.3-2 2.3-1.3 9.9-5.7 16.9-9.6 7-4 13-7.6 13.3-8.2.9-1.4.7-1.3-8 3.7zM298.4 249.6c-1.8 1.4-1.8 1.5.4.4 1.2-.6 2.2-1.3 2.2-1.5 0-.8-.5-.6-2.6 1.1zM245.3 251.1c-3.5 2.2-4.6 3.7-1.5 2 2.2-1.3 5.8-4 5.2-4.1-.3 0-2 1-3.7 2.1zM239.3 253.7c.4.3-.1 1.2-1.1 2-1.5 1.3-1.5 1.3.6.3 1.9-.9 2.3-3 .5-3-.4 0-.3.3 0 .7zM300.4 254.6c-1.8 1.4-1.8 1.5.4.4 1.2-.6 2.2-1.3 2.2-1.5 0-.8-.5-.6-2.6 1.1zM218 260c-.8.5-1.2 1.2-.9 1.5.4.3 1.2-.1 1.9-1 1.4-1.7 1.1-1.9-1-.5zM301.4 260.6c-1.8 1.4-1.8 1.5.4.4 1.2-.6 2.2-1.3 2.2-1.5 0-.8-.5-.6-2.6 1.1zM218.8 263.7c-2.7 1.4-4.6 2.8-4.3 3.1.4.5 9.5-4.6 9.5-5.3 0-.7-.1-.7-5.2 2.2zM220.3 266c-2.8 1.6-5.4 3.4-5.8 4-.3.5 2.1-.6 5.4-2.6 5.2-3.1 7-4.4 5.9-4.4-.2 0-2.6 1.4-5.5 3zM231.2 267c-3.5 2.1-6.6 4.1-7 4.6-.9 1 13-6.5 14.3-7.7 2-1.9-1.2-.6-7.3 3.1zM230.3 270.6c-2.4 1.4-4.3 2.7-4.3 3 0 .7 7.8-3.5 8.5-4.6.9-1.4.5-1.3-4.2 1.6zM217.8 270.6c-3.8 2-3.6 2.8.2.9 1.7-.9 3-1.8 3-2 0-.7-.1-.6-3.2 1.1zM225 279c-1.8 1.2-.2 1.2 2.5 0 1.3-.6 1.5-.9.5-.9-.8 0-2.2.4-3 .9zM313.8 280.6c-3.8 2-3.6 2.8.2.9 1.7-.9 3-1.8 3-2 0-.7-.1-.6-3.2 1.1zM215.7 284.4c-5.8 3.5-5.8 4.1.1 1.2 2.8-1.4 5.2-2.9 5.2-3.1 0-1-1.6-.4-5.3 1.9zM316.4 283.6c-1.8 1.4-1.8 1.5.4.4 1.2-.6 2.2-1.3 2.2-1.5 0-.8-.5-.6-2.6 1.1zM216.5 286.8c-5.1 2.8-13.8 8.7-12 8 3.9-1.3 19.2-10.7 17.5-10.8-.3 0-2.7 1.3-5.5 2.8zM202.8 288.1c-3.2 1.6-5.8 3.2-5.8 3.4 0 .3 2.7-.8 6-2.5s6-3.2 6-3.5c0-.7.2-.8-6.2 2.6zM328.4 298.6c-1.8 1.4-1.8 1.5.4.4 1.2-.6 2.2-1.3 2.2-1.5 0-.8-.5-.6-2.6 1.1zM184.8 301.6c-3.8 2-3.6 2.8.2.9 1.7-.9 3-1.8 3-2 0-.7-.1-.6-3.2 1.1zM206 300.4c0 .2.8 1 1.8 1.7 1.5 1.3 1.6 1.2.3-.4s-2.1-2.1-2.1-1.3zM323.4 301.6c-1.8 1.4-1.8 1.5.4.4 1.2-.6 2.2-1.3 2.2-1.5 0-.8-.5-.6-2.6 1.1zM187.8 302.6c-3.3 1.7-3.4 2-.8 2 1 0 1.7-.2 1.5-.5-.3-.2.3-1 1.3-1.7 2.3-1.8 1.4-1.7-2 .2zM204.4 304.6c-1.8 1.4-1.8 1.5.4.4 1.2-.6 2.2-1.3 2.2-1.5 0-.8-.5-.6-2.6 1.1zM194.8 306.6c-3.8 2-3.6 2.8.2.9 1.7-.9 3-1.8 3-2 0-.7-.1-.6-3.2 1.1zM209 308.1c-3 1.6-5.9 3.5-6.5 4.1-1.1 1.2 10.4-4.9 12-6.3 1.6-1.5.2-1-5.5 2.2zM356 306.2c0 .5-.5.6-1.2.2-.7-.4-.8-.3-.4.4.5.9 1.3.9 2.7.2 2.3-1.3 2.4-1.7.4-1.7-.8 0-1.5.4-1.5.9zM198.8 307.6c-3.8 2-3.6 2.8.2.9 1.7-.9 3-1.8 3-2 0-.7-.1-.6-3.2 1.1zM347.4 307.6c-1.8 1.4-1.8 1.5.4.4 1.2-.6 2.2-1.3 2.2-1.5 0-.8-.5-.6-2.6 1.1zM186.4 311.6c-1.8 1.4-1.8 1.5.4.4 1.2-.6 2.2-1.3 2.2-1.5 0-.8-.5-.6-2.6 1.1zM335.4 311.6c-1.8 1.4-1.8 1.5.4.4 1.2-.6 2.2-1.3 2.2-1.5 0-.8-.5-.6-2.6 1.1zM371.6 311.2c.3.5 1 .6 1.5.3 1.3-.9 1.1-1.2-.6-1.2-.8 0-1.2.4-.9.9zM376 311c-.9.6-1 1-.3 1 .6 0 1.5-.5 1.8-1 .8-1.2.4-1.2-1.5 0zM339.4 312.6c-1.8 1.4-1.8 1.5.4.4 1.2-.6 2.2-1.3 2.2-1.5 0-.8-.5-.6-2.6 1.1zM331 314c-.9.6-1 1-.3 1 .6 0 1.5-.5 1.8-1 .8-1.2.4-1.2-1.5 0zM331.3 317c-2.9 1.7-5.3 3.3-5.3 3.6 0 .6 8.8-4.2 10.5-5.7 1.6-1.6.1-.9-5.2 2.1zM368.6 315.7c-.6 1.4-.5 1.5.5.6.7-.7 1-1.5.7-1.8-.3-.3-.9.2-1.2 1.2zM369 322.1c-7.4 3.8-14 7.6-14.5 8.3-.6.7-4.3 3-8.2 4.9-6.7 3.4-19 10.9-20.2 12.4-.3.4 1.4-.5 3.9-1.9 20.8-11.7 25-14.2 25-14.8 0-.3 2.4-1.7 5.3-3 8.8-4 24.6-13.1 22.5-13-.2 0-6.4 3.2-13.8 7.1zM374 316.9c-.8.6-1.8.7-2.4.4-.5-.3-.6-.1-.2.5.5.9 1.3.9 2.7.2 1-.6 1.9-1.3 1.9-1.5 0-.7-.3-.6-2 .4zM364.5 318c-.3.6.1.7.9.4 1.8-.7 2.1-1.4.7-1.4-.6 0-1.3.4-1.6 1zM380.7 320.5c-3.2 1.9-6.3 3.2-6.9 2.9-.7-.5-.8-.2-.3.6s.3 1.1-.6.8c-.8-.3-2.2-.1-3.2.4-1.5.7-1.6 1.2-.6 2.4 1.4 1.7-.2 1.9-2 .1-1.1-1-1.2-.9-.6.1.5.9.1 1.2-1.1 1-1.4-.2-1.8.2-1.6 1.6.3 1.7.2 1.8-1.2.7-1.4-1.2-1.6-1.1-1 .4.5 1.2.4 1.6-.3 1.2-.6-.4-1.3 0-1.7.8-.3 1 2.3 0 7.5-2.5 5.1-2.6 7.7-4.5 7.3-5.2-.5-.8-.2-.9 1-.5 1.1.5 1.5.3 1-.5s-.2-.9 1-.5c.9.4 1.5.3 1.2-.2-.3-.4 1.7-1.9 4.5-3.1 5.2-2.5 7-4 4.7-4-.7 0-3.9 1.6-7.1 3.5zm-8.2 6.8c-1.1.6-2.1.5-2.8-.3-.9-.8-.7-.9.7-.4 1.3.5 1.7.4 1.2-.4s-.2-1 1-.5c1.5.6 1.5.7-.1 1.6zM190.4 319.6c-1.8 1.4-1.8 1.4.6.3 3.1-1.4 3.6-1.9 2.4-1.9-.6 0-1.9.7-3 1.6zM347.3 322c-4 2.3-7.3 4.3-7.3 4.5 0 .5 7.8-2.9 8.7-3.8.3-.4 1.1-.7 1.7-.7.6 0-.4 1-2.1 2.1-4.6 2.9-4.1 3.4.7.7 2.2-1.3 3.4-2.5 2.8-2.7-.6-.2 0-1.2 1.3-2.2 3.7-2.8 2.1-2.3-5.8 2.1zM360.5 320c-.3.6.1.7.9.4 1.8-.7 2.1-1.4.7-1.4-.6 0-1.3.4-1.6 1zM362.4 322.6c-1.8 1.4-1.8 1.5.4.4 1.2-.6 2.2-1.3 2.2-1.5 0-.8-.5-.6-2.6 1.1zM203.4 323.6c-1.8 1.4-1.8 1.5.4.4 1.2-.6 2.2-1.3 2.2-1.5 0-.8-.5-.6-2.6 1.1zM207.8 324.1c-2.1 1.1-3.8 2.2-3.8 2.4 0 .5 7.9-3.2 8.9-4.1 1.2-1.1-1.8-.1-5.1 1.7zM377.3 326.9c-3.9 2.2-15.4 8.8-25.4 14.7-10.1 5.9-18.8 10.7-19.5 10.7-.7 0-1.1.4-.8.9.8 1.2 32.6-16 48.4-26 8.2-5.3 6.7-5.4-2.7-.3zM198.4 326.6c-1.8 1.4-1.8 1.5.4.4 1.2-.6 2.2-1.3 2.2-1.5 0-.8-.5-.6-2.6 1.1zM320.6 325.9c-.4.5-.2 1.2.3 1.5.5.4 1.2.2 1.5-.3.4-.5.2-1.2-.3-1.5-.5-.4-1.2-.2-1.5.3zM354 327.5c-1.4.8-2 1.4-1.4 1.5.5 0 1.9-.7 3-1.5 2.4-1.8 1.6-1.9-1.6 0zM379.6 334c-7.6 4.4-14.2 7.8-14.5 7.5-.4-.2-.8.2-.8 1s.2 1.5.4 1.5c.9 0 8.8-4.4 14.1-7.7 3.1-2 6.2-3.6 6.9-3.6.7 0 .9-.5.6-1-.4-.6 0-.8.9-.5 1.9.8 8.1-2.9 7.3-4.2-.8-1.2 1.3-2.2-14.9 7zm14.4-6.5c0 .2-1 .9-2.2 1.5-2.2 1.1-2.2 1-.4-.4 2.1-1.7 2.6-1.9 2.6-1.1zM310.5 328c-.8 1.3.5 1.3 2.5 0 1.3-.8 1.3-1-.2-1-.9 0-2 .4-2.3 1zM329.5 334c-10.3 5.7-10.8 6.7-.7 1.6 6.1-3.1 11.5-6.5 10.2-6.5-.3 0-4.5 2.2-9.5 4.9zM309.5 333c.3.6.1 1-.6 1s-1 .3-.6.6c.3.3 1.3.2 2.2-.4 1.6-.8 1.6-.9.1-1.5-1-.4-1.5-.3-1.1.3zM209.5 337.1c-9.1 4.6-10.2 5.4-8.4 6.4.7.5 1 .4.6-.2-.3-.5 3-2.7 7.4-4.9 4.5-2.1 8.3-4.2 8.6-4.6.6-1.1.7-1.1-8.2 3.3zM328 342.1c-15.5 8.1-21.2 11.4-29.5 16.8-3.8 2.5-7.7 4.7-8.5 4.9-.8.2-2.2 1-3 1.8-1.2 1.2-1.2 1.4.2 1.4.9 0 1.9-.7 2.2-1.6.6-1.5 1-1.4 3.4.7l2.7 2.4-2-2.4c-2-2.4-2-2.4 0-1.7 1.1.4 1.6.4 1.2 0-.4-.4.1-1.3 1.1-2 2.1-1.6 3.6-1.8 2.6-.3-.8 1.3 1.3.3 10.9-5.4 3.7-2.1 6.7-4.1 6.7-4.4 0-.2-.3-.2-.7 0-.5.2-4.1 2.3-8.1 4.6-4.1 2.4-7.5 4.1-7.7 3.9-.7-.7 11.8-8.4 25.6-15.8 11.9-6.4 16.3-9 14.9-9-.3 0-5.7 2.8-12 6.1zM186.4 339.6c-1.8 1.4-1.8 1.5.4.4 1.2-.6 2.2-1.3 2.2-1.5 0-.8-.5-.6-2.6 1.1zM221.6 339.2c.5.8.2.9-1 .5-1-.4-1.5-.3-1.1.3.6.9-.8 1.4-2.8 1.1-.5-.1-.6.3-.2.9.4.6 1.7.5 3.6-.5 1.6-.9 2.7-2 2.4-2.5-.4-.6-.8-1-1.1-1-.3 0-.2.5.2 1.2zM387.5 344.1c-11 5.6-19.9 11.4-20.1 12.9-.1.6-.2 1.4-.3 2 0 .5-1.9 1.9-4.1 3-2.2 1.1-4 2.3-4 2.5 0 .7 5.1-1.9 12.3-6.2 4.5-2.8 5.5-3.8 4.7-4.8-.9-1-.7-1.6.9-2.4 2.5-1.4 3.4-1.4 2.5 0-.4.8 0 .8 1.5 0 2.4-1.3 2.8-2.3.6-1.5-2.7 1.1-1.6-.5 1.5-2.1 3.4-1.8 4.4-1.9 3.4-.4-.3.6.8.3 2.5-.5 3.4-1.8 4.1-2.9 1.4-2-1.5.5-1.5.3.1-1 2.3-1.8 4.2-2.1 5.1-.6.6.9 6.5-1.4 6.5-2.6 0-.2-.9 0-2 .6-1.8 1-2.4.7-2.1-1.3.2-1.1.3-1.1-10.4 4.4zm-12 9.9c.4.6-.1.7-1.1.3-1.1-.4-1.5-.3-1 .5.4.7-.6 1.8-2.4 2.7-3.8 2-3.8-.1 0-2.7 3-2 3.7-2.1 4.5-.8zM305.3 345c-7.6 4.1-18.3 11-17.1 11 .4 0 5.2-2.6 10.7-5.7 15-8.6 20-12.8 6.4-5.3zM318 342.9c-11 5.9-15.1 8.4-14.7 8.8.6.5 10.7-4.6 15.2-7.6 2.9-2 2.5-2.9-.5-1.2zM340.1 345.5c-3.6 1.9-7 4-7.5 4.6-1.1 1.2 12.2-5.8 13.9-7.3 1.6-1.5.1-.8-6.4 2.7zM185 344c-.9.6-1 1-.3 1 .6 0 1.5-.5 1.8-1 .8-1.2.4-1.2-1.5 0zM223.3 345.8c-5.5 3.6-6.6 4.9-2.3 2.7 3.9-2 8.7-5.5 7.4-5.4-.5 0-2.8 1.2-5.1 2.7zM358.4 344.5c-1.6 1.3-1.6 1.4-.1.9 1.2-.4 1.6-.2 1.2.7-.3.8-3.9 3.1-8.1 5.3-4.1 2.1-7.3 4-7 4.3.2.3 1.4 0 2.5-.7 1.2-.6 2.7-.8 3.3-.4.7.5.8.3.3-.6-.6-1-.4-1.2.9-.7.9.4 1.5.3 1.2-.1-.3-.5.9-1.7 2.7-2.7 4.1-2.4 8.9-6.9 6.2-5.9-1.3.5-1.6.4-1.1-.4 1-1.6.4-1.5-2 .3zM193.3 347c-2.9 1.7-5.3 3.3-5.3 3.5 0 .5 8.3-3.6 11-5.4 3.3-2.3-.8-.9-5.7 1.9zM209.6 344.8c-.3.5.1.9.9.9s1.2-.4.9-.9c-.3-.4-.7-.8-.9-.8-.2 0-.6.4-.9.8zM398.8 345.9c-.1.5-3.7 2.5-7.8 4.6-10.2 5.1-26.9 14.7-36 20.8-9.3 6.2-9.5 6.3-7.9 7.2.8.6 1 .4.4-.5-.6-1-.4-1.2.8-.7 1 .4 1.6.2 1.4-.5-.1-.6.4-1.3 1.2-1.6.9-.3 1.1 0 .6.7-.4.7 2-.2 5.4-1.9 3.4-1.6 6.1-3.3 6.1-3.5 0-.3-1.4.2-3.1 1-1.7.9-3.3 1.4-3.5 1.2-.6-.6 12.7-8 14.3-8 .7 0 1.5-.7 1.8-1.5.3-.8 1.2-1.1 2.1-.8.8.3 1.3.2 1-.3-.3-.5.1-1.2 1-1.5.9-.3 1.2-.2.9.5-.4.5 3.4-1 8.4-3.5 9.6-4.9 10.6-5.2 9.5-3.5-.3.6.8.3 2.5-.5 1.7-.9 3.1-1.9 3.1-2.2 0-.2-.9 0-2.1.6-3.8 2.1-3 .3 1.1-2.4 4.2-2.8 5.5-4.5 1.9-2.5-1.3.7-1.9.7-1.5.1.3-.6.2-1.3-.3-1.6-.5-.4-1.1-.2-1.3.3zm.2 2.6c0 .2-1.3 1.1-3 2-3.8 1.9-4 1.1-.2-.9 3.1-1.7 3.2-1.8 3.2-1.1zm-7 4c0 .2-1.3 1.1-3 2-3.8 1.9-4 1.1-.2-.9 3.1-1.7 3.2-1.8 3.2-1.1zm-7 4c0 .2-1.5 1.2-3.2 2l-3.3 1.6 2.5-2c2.4-2 4-2.6 4-1.6zM355 374c-.8.5-1.9 1-2.5 1-.5 0-.3-.5.5-1s2-1 2.5-1c.6 0 .3.5-.5 1zM367.2 351.9c-13 7.4-14.6 8.9-2.5 2.5 8.1-4.2 14.8-8.4 13.3-8.3-.3 0-5.1 2.6-10.8 5.8z"/><path d="M322.6 349.2c.3.5 1 .6 1.5.3 1.3-.9 1.1-1.2-.6-1.2-.8 0-1.2.4-.9.9zM347.8 350.1c-2.1 1.1-3.8 2.2-3.8 2.4 0 .3 1.8-.4 4-1.5s4-2.3 4-2.5c0-.7 0-.7-4.2 1.6zM259.5 351.6l-3 2.5 3.3-1.7c1.7-1 3.2-2.2 3.2-2.6 0-1.2-.2-1.1-3.5 1.8zM274 350.4c-1.4.8-2.9 1.2-3.4.9-.5-.4-.6 0-.1.7.6 1 .4 1.2-.9.7-1.1-.4-1.5-.3-1.1.4.4.6.1.9-.7.7-.7-.2-1.4.1-1.5.6-.1.5-.7 1.3-1.5 1.8-.9.7-.7.8.7.3 1.1-.4 2.9-.8 4-.9 1.1-.1 1.9-.7 1.8-1.4-.2-.6 1.1-1.9 2.7-2.7 1.7-.9 3-1.8 3-2 0-.7-.1-.6-3 .9zM318.4 350.6c-1.8 1.5-1.8 1.5.2.5 1.2-.6 2.5-.7 2.9-.3.5.4.5.1.1-.6-.9-1.5-.8-1.5-3.2.4zM207.3 353.5c0 .8.4 1.2.9.9.5-.3.6-1 .3-1.5-.9-1.3-1.2-1.1-1.2.6zM399.3 355.6c-3.5 1.9-6.3 3.7-6.3 4 0 .7 11.8-5.5 12.5-6.6.9-1.4.7-1.3-6.2 2.6zM202.8 354.6c-1.6.8-2.8 1.7-2.8 2 0 .2.9 0 2-.6s2.4-.9 2.9-.6c.4.3.8-.1.8-.9s-.1-1.5-.1-1.5c-.1.1-1.3.8-2.8 1.6zM320.3 356.1c-5.3 3.1-6.8 4.4-3.6 3.2 1.2-.5 1.4-.3.8.7-.5.9-.4 1.1.4.6.6-.4.8-1.2.5-1.8-.5-.8-.1-.9 1-.5 1 .4 1.5.3 1.1-.3-.3-.5.3-1.4 1.4-1.9 2.5-1.4 3.4-1.4 2.5 0-.5.8-.1.8 1.3 0 1.1-.6 2.4-.7 2.8-.3.5.4.5.2.1-.5s-1.4-.9-2.3-.6c-1.1.4-1.4.3-.9-.5 1-1.6.8-1.6-5.1 1.9zM340.4 354.6c-1.8 1.4-1.8 1.5.4.4 1.2-.6 2.2-1.3 2.2-1.5 0-.8-.5-.6-2.6 1.1zM236.7 359.1c-3.2 1.6-5.5 3.4-5.2 3.9.3.6.8 1 1.1 1 .3 0 .3-.4 0-.8-.3-.5 1.7-2 4.5-3.2 2.8-1.3 5.3-2.8 5.5-3.2.7-1.1.6-1.1-5.9 2.3zM239.6 362.5c-5.4 3.6-10.3 6.2-10.9 5.8-.6-.3-.7-.1-.3.5.4.6-.1 1-1.1.9-1 0-5.4 2.3-9.8 5.2-9.9 6.6-10 6.7-8.4 7.6.8.6 1 .4.4-.5-.6-1-.4-1.2.8-.7 1 .4 1.6.2 1.4-.6-.1-.7.6-1.1 1.5-1.1 1 .1 1.6-.2 1.3-.6-.5-.9 7.4-6.3 9.2-6.3.7 0 1-.4.7-.8-.2-.4.4-.7 1.3-.7 1.8.2 22.7-12.4 23.8-14.3.9-1.3.9-1.3-9.9 5.6zM397.8 360.6c-8.4 4.8-10.1 6.4-4 3.6 7.7-3.6 12.2-6.3 12.2-7.2 0-1.3.5-1.5-8.2 3.6zM279.8 358.6c-1.6.8-2.8 1.7-2.8 1.9 0 1 1.6.4 4-1.5 3-2.3 2.5-2.5-1.2-.4zM333.4 358.6c-1.8 1.4-1.8 1.5.4.4 1.2-.6 2.2-1.3 2.2-1.5 0-.8-.5-.6-2.6 1.1zM210.4 360.6c-1.8 1.4-1.8 1.5.4.4 1.2-.6 2.2-1.3 2.2-1.5 0-.8-.5-.6-2.6 1.1zM287.4 360.4c-1.9 1.5-1.9 1.5.2 1.3 1.1 0 2.1-.7 2.1-1.4 0-1.6.1-1.6-2.3.1zM310.5 365.7c-6 3.1-10.5 5.8-10 6 1 .3 21.5-10.4 21.5-11.3 0-.6.5-.8-11.5 5.3zM326.5 365.6c-5.5 3-10.4 6-11 6.6-1.1 1.2 20.5-9.9 22-11.3 2.2-2.2-1.6-.5-11 4.7zM348.8 362.1c-2.1 1.1-3.8 2.2-3.8 2.4 0 .3 1.8-.4 4-1.5s4-2.3 4-2.5c0-.7 0-.7-4.2 1.6zM254 363.5c-1.4.8-2 1.4-1.4 1.5.5 0 1.9-.7 3-1.5 2.4-1.8 1.6-1.9-1.6 0zM282.1 363.4c-.9 1.1-.9 1.6.1 2.2.7.4 1 .4.6-.1-.4-.4 0-1.4 1-2.1.9-.7 1.2-1.4.6-1.4s-1.7.6-2.3 1.4zM401.5 364.1c-.4.6-.5 1.2-.2 1.5.2.3.7-.2 1-1.1.7-1.7.1-2-.8-.4zM354.5 364.9c-.3.5-.2 1.2.3 1.5.5.3.9-.1.9-.9 0-1.7-.3-1.9-1.2-.6zM399 365.9c0 .7-.5.9-1.2.5-.7-.5-.8-.3-.3.5.5.9 1 1 1.8.2.6-.6.8-1.4.4-1.8-.4-.3-.7-.1-.7.6zM349.2 368c-3.7 2.3-4.6 2.5-3.6.8.4-.7.3-.8-.5-.4-.6.4-.8 1.2-.5 1.8.5.7.2.9-.8.5-1.8-.6-3 .1-2.2 1.5.5.8 8.4-3.1 10.9-5.3 1.5-1.5.2-1-3.3 1.1zM290 367.4c0 .2.7.7 1.6 1 .8.3 1.2.2.9-.4-.6-1-2.5-1.4-2.5-.6zM337.4 368.6c-1.8 1.4-1.8 1.5.4.4 1.2-.6 2.2-1.3 2.2-1.5 0-.8-.5-.6-2.6 1.1zM389.5 370.6c-7.6 4.6-8.1 5-4.7 4.9 1.5 0 2.6-.6 2.5-1.2-.1-.6 1.8-2.3 4.2-3.8 2.5-1.4 4.5-2.8 4.5-3 0-.7 0-.7-6.5 3.1zM311.1 370.4c-2.5 1.3-4.5 3.1-4.7 4-.3 2 1.6 2.1 4.2.1 1.8-1.4 1.7-1.5-1.1-1-2.5.5-2.2.2 1.8-2 2.6-1.4 4.7-2.8 4.7-3 0-.7.1-.7-4.9 1.9zM325.7 374.9c-6.3 3.5-10.9 6.8-6 4.2 2.7-1.4 3.6-1.4 2.7 0-.4.8 0 .8 1.5 0 1.2-.7 2.7-.9 3.3-.5.7.4.8.3.4-.4s.9-1.9 3.4-3.2c4-2 5.5-3.5 2.3-2.3-1.1.4-1.4.3-.9-.5 1-1.6 1-1.6-6.7 2.7zm2.8.6c-2.2 1.3-4.4 2.4-5 2.5-.5 0 .8-1.1 3-2.5 2.2-1.3 4.5-2.4 5-2.5.6 0-.8 1.1-3 2.5zM373.4 373.5c-.5 1.3-.9 1.3-2.3.3-1.4-1.2-1.4-1.1-.2.4 1 1.4 1.7 1.5 3.2.7 1.1-.5 1.7-1.4 1.4-2-.9-1.3-1.5-1.1-2.1.6zM358.8 374.6c-3.8 2-3.6 2.8.2.9 1.7-.9 3-1.8 3-2 0-.7-.1-.6-3.2 1.1zM364.5 374c-.3.6.1.7.9.4 1.8-.7 2.1-1.4.7-1.4-.6 0-1.3.4-1.6 1zM366.8 375.1c-.9.5-1.5 1.6-1.2 2.3.3.9-1.5 2.5-5 4.5-6.3 3.5-7 3.7-6.2 1.6.5-1.3.2-1.4-1.5-.5-1.6.9-1.8 1.4-.8 2.6 1.4 1.7-.2 1.9-2.1.1-1.2-1-1.2-.9-.1.5.8 1.1.9 1.8.3 1.8-.6 0-1.4-.5-1.7-1-.4-.7-1.3-.6-2.6.1-1.5.8-1.8 1.4-1 2.3.6.7.7 1.6.3 2.1-.8.9 5.9-2.8 17.6-9.8 6.8-4 8.1-5.1 7.1-6.3-.6-.8-1.2-1.4-1.3-1.4 0 0-.9.5-1.8 1.1zm2.1 2c-.7.4-1.7.5-2.2.2-.5-.3-.3-.9.4-1.4.7-.4 1.7-.5 2.2-.2.5.3.3.9-.4 1.4zm-20.8 12.2c-.8.8-1.4.7-2.3-.2-1-1.1-1-1.3 0-.7.6.4 1.2.2 1.2-.4 0-.6.5-.8 1.1-.4.8.4.8.9 0 1.7zM400.9 376.7c-1.3 1.6-1.2 1.7.4.4 1.6-1.3 2.1-2.1 1.3-2.1-.2 0-1 .8-1.7 1.7zM358.4 377.6c-1.8 1.4-1.8 1.5.4.4 1.2-.6 2.2-1.3 2.2-1.5 0-.8-.5-.6-2.6 1.1zM392.4 377.6c-1.8 1.4-1.8 1.5.4.4 1.2-.6 2.2-1.3 2.2-1.5 0-.8-.5-.6-2.6 1.1z"/><path d="M358.8 379.6c-3.8 2-3.6 2.8.2.9 1.7-.9 3-1.8 3-2 0-.7-.1-.6-3.2 1.1zM394.4 379.6c-1.8 1.4-1.8 1.5.4.4 1.2-.6 2.2-1.3 2.2-1.5 0-.8-.5-.6-2.6 1.1zM374.7 380.6c-1.5.8-3.3 1.2-3.9.8-.7-.5-.8-.3-.3.6.6 1 .4 1.2-.8.7-.9-.3-1.6-.2-1.4.3.1.6-2 2.4-4.8 4-2.7 1.6-4.6 3-4.1 3 1 0 14.3-7.3 17.1-9.4 2.5-1.9 1.8-1.9-1.8 0zM377.3 385.8c-11.5 6.4-17.8 10.5-10.3 6.7 5.9-2.9 23-12.7 23-13.1 0-.6.1-.7-12.7 6.4zM319.5 381c-.3.6.1 1.3 1 1.6 1.4.6 1.4.8-.1 1.9-1.4.9-1.4 1.4-.4 2 .9.6 1.1.4.5-.5-.6-.9-.4-1.2.6-.8 1.1.4 1.5-.1 1.5-1.7 0-1.6-.4-2.1-1.5-1.7-.9.3-1.2.1-.7-.6.4-.7.5-1.2.2-1.2s-.8.5-1.1 1zM213.4 384.6c-3.2 2-6.4 3.7-7.1 3.7-.7 0-1 .4-.7.9.3.5 1.6.3 2.7-.5 1.2-.7 4.3-2.6 7-4.1 4.1-2.4 5.5-3.6 4.4-3.6-.2 0-3 1.6-6.3 3.6zM389.4 382.6c-1.8 1.4-1.8 1.5.4.4 1.2-.6 2.2-1.3 2.2-1.5 0-.8-.5-.6-2.6 1.1zM324.3 383.5c0 .8.4 1.2.9.9.5-.3.6-1 .3-1.5-.9-1.3-1.2-1.1-1.2.6zM199.4 384.6c-1.8 1.4-1.8 1.5.4.4 1.2-.6 2.2-1.3 2.2-1.5 0-.8-.5-.6-2.6 1.1zM312 384c-.9.6-1 1-.3 1 .6 0 1.5-.5 1.8-1 .8-1.2.4-1.2-1.5 0zM333.3 386.6c-2.4 1.4-4.3 2.7-4.3 3 0 .6 6.7-3.3 8.5-4.8 1.7-1.5.1-.8-4.2 1.8zM314.8 385.7c-1 .2-1.8.9-1.8 1.4 0 .6.8.5 2-.1 1.9-1 2.4-.6 2.1 1.3-.1.5.3.6.9.2.8-.5.7-1.1-.1-2.1-.6-.8-1.2-1.3-1.3-1.3 0 .1-.9.3-1.8.6zM335 389.8c-4.7 2.6-8.8 4.8-9.2 4.7-.3 0-1 .3-1.4.7-2.9 3 12.6-4.4 18.1-8.6 3.4-2.6 1.3-1.7-7.5 3.2zM365.8 389.4c-7.8 4.4-8.8 5.8-1.3 1.7 5.5-3 8.6-5.1 7.5-5.1-.3 0-3.1 1.5-6.2 3.4zM322.3 389.5c-1.8.8-3.3 1.6-3.3 1.9 0 .6 5.1-1.4 6.5-2.6 1.3-1.1.5-1-3.2.7zM365.7 397.9c-9.7 5.4-18 10.1-18.4 10.5-1.4 1.4 11-4.7 17-8.4 3.4-2 8.5-4.9 11.2-6.3 4.8-2.4 9.6-5.6 8.5-5.7-.3 0-8.5 4.4-18.3 9.9zM337.7 391.6c-2.3 1.2-3 3.4-1.1 3.4.3 0 .2-.5-.2-1.2-.5-.8-.2-.9 1-.5 1 .4 1.9.1 2.2-.8.4-.8 1.1-1.2 1.7-.8.6.3.7.1.3-.5-.9-1.4-.5-1.5-3.9.4zM350.8 392.6c-2.7 1.3-4.8 2.7-4.8 2.9 0 .3 2.3-.6 5-2 2.8-1.4 5-2.8 5-3 0-.7.1-.7-5.2 2.1zM331.5 395.3c-1.4 1.1-1.5 1.6-.5 2.2.9.5 1.1.4.6-.3-.7-1.1.6-1.7 2.7-1.3.5.1.6-.3.2-.9-.8-1.3-.8-1.3-3 .3z"/><path d="M361 395c-.9.6-1 1-.3 1 .6 0 1.5-.5 1.8-1 .8-1.2.4-1.2-1.5 0zM373.3 399.3c-9.7 5.4-12 7.6-3.5 3.3 2.7-1.4 5.3-2.2 5.7-1.8.5.4.5.2.1-.5-.3-.6.1-1.4 1.1-1.7 1.7-.6 7.3-4.6 6.3-4.5-.3 0-4.6 2.4-9.7 5.2zM340 399c-1.2 1.2-3.2 2.5-4.5 3-2.1.8-3.6 3-2 3 1.3 0 8.4-5.3 8.9-6.6.8-2 0-1.8-2.4.6zM351.7 401.3c.3.5 0 .7-.8.5-1.2-.4-6.9 1.7-6.9 2.5 0 .2.9.3 1.9.3 1.1 0 1.7-.4 1.4-.9-.3-.5 0-.7.8-.5 1.2.4 6.9-1.7 6.9-2.5 0-.2-.9-.3-1.9-.3-1.1 0-1.7.4-1.4.9zM376.4 402.6c-1.8 1.5-1.8 1.5.2.5 1.2-.6 2.5-.7 2.9-.3.5.4.5.1.1-.6-.9-1.5-.8-1.5-3.2.4zM371.4 405.6c-1.8 1.4-1.8 1.5.4.4 1.2-.6 2.2-1.3 2.2-1.5 0-.8-.5-.6-2.6 1.1z"/></svg>